<mxfile host="app.diagrams.net" modified="2020-11-12T16:10:06.359Z" agent="5.0 (Windows NT 10.0; Win64; x64) AppleWebKit/537.36 (KHTML, like Gecko) Chrome/86.0.4240.75 Safari/537.36" etag="GwexjodoTw5HK1GbaSP-" version="13.8.7" type="github">
  <diagram id="LPjgrjdMP9hSeUfSDCBD" name="Page-1">
    <mxGraphModel dx="868" dy="450" grid="1" gridSize="10" guides="1" tooltips="1" connect="1" arrows="1" fold="1" page="1" pageScale="1" pageWidth="827" pageHeight="1169" math="0" shadow="0">
      <root>
        <mxCell id="0" />
        <mxCell id="1" parent="0" />
        <mxCell id="BsddnV0_xsgzPgbBmvm3-6" value="" style="edgeStyle=orthogonalEdgeStyle;rounded=0;orthogonalLoop=1;jettySize=auto;html=1;sketch=1;" edge="1" parent="1" target="BsddnV0_xsgzPgbBmvm3-2">
          <mxGeometry relative="1" as="geometry">
            <mxPoint x="350" y="410" as="sourcePoint" />
          </mxGeometry>
        </mxCell>
        <mxCell id="BsddnV0_xsgzPgbBmvm3-1" value="&lt;font style=&quot;font-size: 14px&quot;&gt;ServiceConfig&lt;/font&gt;" style="rounded=1;whiteSpace=wrap;html=1;sketch=1;" vertex="1" parent="1">
          <mxGeometry x="290" y="350" width="120" height="60" as="geometry" />
        </mxCell>
        <mxCell id="BsddnV0_xsgzPgbBmvm3-7" value="" style="edgeStyle=orthogonalEdgeStyle;rounded=0;sketch=1;orthogonalLoop=1;jettySize=auto;html=1;" edge="1" parent="1" source="BsddnV0_xsgzPgbBmvm3-2" target="BsddnV0_xsgzPgbBmvm3-3">
          <mxGeometry relative="1" as="geometry" />
        </mxCell>
        <mxCell id="BsddnV0_xsgzPgbBmvm3-2" value="&lt;font style=&quot;font-size: 14px&quot;&gt;ProxyFactory&lt;/font&gt;" style="rounded=1;whiteSpace=wrap;html=1;sketch=1;" vertex="1" parent="1">
          <mxGeometry x="290" y="440" width="120" height="60" as="geometry" />
        </mxCell>
        <mxCell id="BsddnV0_xsgzPgbBmvm3-8" value="" style="edgeStyle=orthogonalEdgeStyle;rounded=0;sketch=1;orthogonalLoop=1;jettySize=auto;html=1;" edge="1" parent="1" source="BsddnV0_xsgzPgbBmvm3-3" target="BsddnV0_xsgzPgbBmvm3-4">
          <mxGeometry relative="1" as="geometry" />
        </mxCell>
        <mxCell id="BsddnV0_xsgzPgbBmvm3-3" value="&lt;font style=&quot;font-size: 14px&quot;&gt;Invoker&lt;/font&gt;" style="ellipse;whiteSpace=wrap;html=1;sketch=1;fillColor=#fff2cc;strokeColor=#d6b656;" vertex="1" parent="1">
          <mxGeometry x="290" y="530" width="120" height="80" as="geometry" />
        </mxCell>
        <mxCell id="BsddnV0_xsgzPgbBmvm3-9" value="" style="edgeStyle=orthogonalEdgeStyle;rounded=0;sketch=1;orthogonalLoop=1;jettySize=auto;html=1;" edge="1" parent="1" source="BsddnV0_xsgzPgbBmvm3-4" target="BsddnV0_xsgzPgbBmvm3-5">
          <mxGeometry relative="1" as="geometry" />
        </mxCell>
        <mxCell id="BsddnV0_xsgzPgbBmvm3-4" value="&lt;font style=&quot;font-size: 14px&quot;&gt;Protocol&lt;/font&gt;" style="rounded=1;whiteSpace=wrap;html=1;shadow=0;sketch=1;" vertex="1" parent="1">
          <mxGeometry x="290" y="640" width="120" height="60" as="geometry" />
        </mxCell>
        <mxCell id="BsddnV0_xsgzPgbBmvm3-5" value="&lt;span style=&quot;font-size: 14px&quot;&gt;Exporter&lt;/span&gt;" style="ellipse;whiteSpace=wrap;html=1;sketch=1;fillColor=#fff2cc;strokeColor=#d6b656;" vertex="1" parent="1">
          <mxGeometry x="290" y="730" width="120" height="80" as="geometry" />
        </mxCell>
        <mxCell id="BsddnV0_xsgzPgbBmvm3-10" value="" style="shape=curlyBracket;whiteSpace=wrap;html=1;rounded=1;" vertex="1" parent="1">
          <mxGeometry x="240" y="380" width="20" height="190" as="geometry" />
        </mxCell>
        <mxCell id="BsddnV0_xsgzPgbBmvm3-12" value="" style="shape=curlyBracket;whiteSpace=wrap;html=1;rounded=1;" vertex="1" parent="1">
          <mxGeometry x="240" y="590" width="20" height="190" as="geometry" />
        </mxCell>
        <mxCell id="BsddnV0_xsgzPgbBmvm3-14" value="&lt;font style=&quot;font-size: 14px&quot;&gt;服务转换成Invoker&lt;/font&gt;" style="text;html=1;strokeColor=none;fillColor=none;align=center;verticalAlign=middle;whiteSpace=wrap;rounded=0;" vertex="1" parent="1">
          <mxGeometry x="80" y="453.75" width="130" height="42.5" as="geometry" />
        </mxCell>
        <mxCell id="BsddnV0_xsgzPgbBmvm3-15" value="&lt;font style=&quot;font-size: 14px&quot;&gt;Invoker转换成Exporter&lt;/font&gt;" style="text;html=1;strokeColor=none;fillColor=none;align=center;verticalAlign=middle;whiteSpace=wrap;rounded=0;" vertex="1" parent="1">
          <mxGeometry x="40" y="660" width="160" height="46.25" as="geometry" />
        </mxCell>
        <mxCell id="BsddnV0_xsgzPgbBmvm3-18" value="&lt;font style=&quot;font-size: 14px&quot;&gt;包含服务的具体实现类&lt;/font&gt;" style="text;html=1;strokeColor=none;fillColor=none;align=center;verticalAlign=middle;whiteSpace=wrap;rounded=0;" vertex="1" parent="1">
          <mxGeometry x="430" y="365" width="150" height="30" as="geometry" />
        </mxCell>
        <mxCell id="BsddnV0_xsgzPgbBmvm3-21" value="&lt;pre&gt;&lt;font style=&quot;font-size: 14px&quot;&gt;Javassist或者jdk动态代理&lt;/font&gt;&lt;/pre&gt;" style="text;html=1;strokeColor=none;fillColor=none;align=center;verticalAlign=middle;whiteSpace=wrap;rounded=0;" vertex="1" parent="1">
          <mxGeometry x="410" y="446.88" width="230" height="46.25" as="geometry" />
        </mxCell>
        <mxCell id="BsddnV0_xsgzPgbBmvm3-23" value="&lt;span style=&quot;font-size: 14px&quot;&gt;Dubbo Injvm等&lt;/span&gt;" style="text;html=1;strokeColor=none;fillColor=none;align=center;verticalAlign=middle;whiteSpace=wrap;rounded=0;" vertex="1" parent="1">
          <mxGeometry x="440" y="660" width="140" height="20" as="geometry" />
        </mxCell>
        <mxCell id="BsddnV0_xsgzPgbBmvm3-25" value="&lt;span style=&quot;font-size: 14px&quot;&gt;管理Invoker生命周期&lt;/span&gt;" style="text;html=1;strokeColor=none;fillColor=none;align=center;verticalAlign=middle;whiteSpace=wrap;rounded=0;" vertex="1" parent="1">
          <mxGeometry x="440" y="760" width="140" height="20" as="geometry" />
        </mxCell>
        <mxCell id="BsddnV0_xsgzPgbBmvm3-26" value="&lt;pre&gt;&lt;font style=&quot;font-size: 14px&quot;&gt;AbstractProxyInvoker&lt;/font&gt;&lt;/pre&gt;" style="text;html=1;strokeColor=none;fillColor=none;align=center;verticalAlign=middle;whiteSpace=wrap;rounded=0;" vertex="1" parent="1">
          <mxGeometry x="440" y="560" width="140" height="20" as="geometry" />
        </mxCell>
      </root>
    </mxGraphModel>
  </diagram>
</mxfile>
